<svg width="16" height="16" viewBox="0 0 16 16" fill="none" xmlns="http://www.w3.org/2000/svg">
  <g id="alert-triangle">
    <path id="Vector" fill-rule="evenodd" clip-rule="evenodd"
      d="M13.2092 6.279L13.2092 6.27901C13.9136 7.53686 14.2658 8.16578 14.4196 8.64855C15.3219 11.48 13.5701 14.4689 10.6587 15.0651C10.1623 15.1667 9.44153 15.1667 7.99988 15.1667C6.55824 15.1667 5.83742 15.1667 5.34103 15.0651C2.42967 14.4689 0.677833 11.48 1.58016 8.64855C1.73401 8.16578 2.0862 7.53686 2.79059 6.27901L2.7906 6.27901C3.52329 4.97063 3.88963 4.31644 4.22865 3.927C6.22163 1.63761 9.77814 1.63761 11.7711 3.927C12.1101 4.31644 12.4765 4.97063 13.2092 6.279ZM8.74986 6.00005C8.74986 5.58583 8.41408 5.25005 7.99986 5.25005C7.58565 5.25005 7.24986 5.58583 7.24986 6.00005V8.66672C7.24986 9.08093 7.58565 9.41672 7.99986 9.41672C8.41408 9.41672 8.74986 9.08093 8.74986 8.66672V6.00005ZM8.41653 11C8.41653 11.0939 8.38552 11.1804 8.3332 11.2501V11V10.75C8.38552 10.8197 8.41653 10.9062 8.41653 11ZM7.5832 11C7.5832 11.0939 7.6142 11.1804 7.66653 11.2501V11V10.75C7.6142 10.8197 7.5832 10.9062 7.5832 11ZM7.99986 9.91672C7.40155 9.91672 6.91653 10.4017 6.91653 11C6.91653 11.5984 7.40155 12.0834 7.99986 12.0834C8.59817 12.0834 9.0832 11.5984 9.0832 11C9.0832 10.4017 8.59817 9.91672 7.99986 9.91672Z"
      fill="#FF0000" />
  </g>
</svg>