<svg width="20" height="20" viewBox="0 0 20 20" fill="none" xmlns="http://www.w3.org/2000/svg">
  <g clip-path="url(#clip0_6079_2608)">
    <path
      d="M14.5834 6.66675H5.41675M6.66675 10.4167C6.66675 10.6469 6.4802 10.8334 6.25008 10.8334C6.01996 10.8334 5.83341 10.6469 5.83341 10.4167M6.66675 10.4167C6.66675 10.1866 6.4802 10.0001 6.25008 10.0001C6.01996 10.0001 5.83341 10.1866 5.83341 10.4167M6.66675 10.4167H5.83341M6.66675 13.7501C6.66675 13.9802 6.4802 14.1667 6.25008 14.1667C6.01996 14.1667 5.83341 13.9802 5.83341 13.7501M6.66675 13.7501C6.66675 13.52 6.4802 13.3334 6.25008 13.3334C6.01996 13.3334 5.83341 13.52 5.83341 13.7501M6.66675 13.7501H5.83341M10.4167 10.4167C10.4167 10.6469 10.2302 10.8334 10.0001 10.8334C9.76996 10.8334 9.58341 10.6469 9.58341 10.4167M10.4167 10.4167C10.4167 10.1866 10.2302 10.0001 10.0001 10.0001C9.76996 10.0001 9.58341 10.1866 9.58341 10.4167M10.4167 10.4167H9.58341M10.4167 13.7501C10.4167 13.9802 10.2302 14.1667 10.0001 14.1667C9.76996 14.1667 9.58341 13.9802 9.58341 13.7501M10.4167 13.7501C10.4167 13.52 10.2302 13.3334 10.0001 13.3334C9.76996 13.3334 9.58341 13.52 9.58341 13.7501M10.4167 13.7501H9.58341M14.1667 10.4167C14.1667 10.6469 13.9802 10.8334 13.7501 10.8334C13.52 10.8334 13.3334 10.6469 13.3334 10.4167M14.1667 10.4167C14.1667 10.1866 13.9802 10.0001 13.7501 10.0001C13.52 10.0001 13.3334 10.1866 13.3334 10.4167M14.1667 10.4167H13.3334M14.1667 13.7501C14.1667 13.9802 13.9802 14.1667 13.7501 14.1667C13.52 14.1667 13.3334 13.9802 13.3334 13.7501M14.1667 13.7501C14.1667 13.52 13.9802 13.3334 13.7501 13.3334C13.52 13.3334 13.3334 13.52 13.3334 13.7501M14.1667 13.7501H13.3334"
      stroke="#FF4A00" stroke-width="1.5" stroke-linecap="round" stroke-linejoin="round" />
    <path
      d="M6.66675 0.833252V3.33325M13.3334 0.833252V3.33325M10.0001 18.3333V18.3333C12.1713 18.3333 13.2569 18.3333 14.1376 18.0556C16.0046 17.4669 17.4671 16.0045 18.0557 14.1375C18.3334 13.2567 18.3334 12.1711 18.3334 9.99992V9.99992C18.3334 7.8287 18.3334 6.7431 18.0557 5.86235C17.4671 3.99537 16.0046 2.53294 14.1376 1.94428C13.2569 1.66659 12.1713 1.66659 10.0001 1.66659V1.66659C7.82887 1.66659 6.74326 1.66659 5.86251 1.94428C3.99553 2.53294 2.5331 3.99537 1.94445 5.86235C1.66675 6.7431 1.66675 7.8287 1.66675 9.99992V9.99992C1.66675 12.1711 1.66675 13.2567 1.94445 14.1375C2.5331 16.0045 3.99553 17.4669 5.86251 18.0556C6.74326 18.3333 7.82887 18.3333 10.0001 18.3333Z"
      stroke="#1C1B18" stroke-width="1.5" stroke-linecap="round" stroke-linejoin="round" />
  </g>
  <defs>
    <clipPath id="clip0_6079_2608">
      <rect width="20" height="20" fill="white" />
    </clipPath>
  </defs>
</svg>