<svg viewBox="0 0 32 32" fill="none" xmlns="http://www.w3.org/2000/svg">
  <rect x="2" y="2" width="28" height="28" rx="8" fill="#1C1B18" />
  <path
    d="M23.6742 19.4093L23.4459 20.0536C23.0365 21.2102 22.2912 22.2092 21.3111 22.9152C20.3309 23.6212 19.1634 23.9999 17.9669 24H10.3884L11.8893 19.751H8L8.59579 18.0661C8.73458 17.6827 8.98418 17.3522 9.31099 17.119C9.63781 16.8859 10.0262 16.7612 10.4239 16.7619H15.4491C15.6053 16.7621 15.7591 16.8008 15.8977 16.875C16.0362 16.9491 16.1553 17.0564 16.245 17.1879C16.3348 17.3193 16.3925 17.4711 16.4133 17.6303C16.4341 17.7895 16.4173 17.9514 16.3645 18.1026L15.51 20.5126H18.0454C18.4447 20.5127 18.8344 20.3864 19.1614 20.1507C19.4885 19.915 19.7371 19.5816 19.8735 19.1955L20.2259 18.1965C20.3333 17.8943 20.3682 17.5698 20.3275 17.2508C20.2869 16.9317 20.1719 16.6275 19.9924 16.364C19.8129 16.1005 19.5742 15.8854 19.2966 15.7372C19.019 15.5889 18.7107 15.5119 18.3979 15.5125H9.52381L10.7611 12.0122L12.4167 7.31721C12.5531 6.93115 12.8017 6.59761 13.1288 6.36195C13.4558 6.1263 13.8455 5.99993 14.2448 6L16.7802 6L14.6556 11.9991H18.6362C19.499 11.9989 20.3491 12.2129 21.1143 12.6228C21.8796 13.0328 22.5373 13.6267 23.0318 14.354C23.5263 15.0813 23.843 15.9207 23.9548 16.8008C24.0666 17.6809 23.9703 18.5757 23.6742 19.4093Z"
    fill="white" />
</svg>