<svg xmlns="http://www.w3.org/2000/svg" width="100" height="58" viewBox="0 0 97 58" fill="none">
    <path
        d="M8 58H88.9282C94.3807 58 98.2356 52.6649 96.5236 47.4881L83.7681 8.91817C82.0076 3.59483 77.0324 0 71.4255 0H8C3.58172 0 0 3.58172 0 8V50C0 54.4183 3.58172 58 8 58Z"
        fill="red" />
    <path
        d="M8 58H88.9282C94.3807 58 98.2356 52.6649 96.5236 47.4881L83.7681 8.91817C82.0076 3.59483 77.0324 0 71.4255 0H8C3.58172 0 0 3.58172 0 8V50C0 54.4183 3.58172 58 8 58Z"
        fill="red" />
</svg>